<svg width="35" height="38" viewBox="0 0 35 38" fill="none" xmlns="http://www.w3.org/2000/svg">
<path d="M34.9937 0.754105C34.8283 1.91962 34.645 3.04945 34.3239 4.15864C32.7191 9.70627 28.4143 14.636 22.6014 18.1766C26.9521 23.0868 29.971 29.6706 30.8034 36.7853L30.804 36.7959C30.8634 37.3022 30.4478 37.7489 29.9072 37.7595L18.0452 37.9999C17.689 38.0066 17.3825 37.764 17.3295 37.4322C16.7836 34.046 15.2085 31.091 13.062 28.9351C11.2728 27.1371 9.08584 25.8947 6.76641 25.4201C6.35182 25.3348 5.93291 25.2746 5.51075 25.2405C5.14319 25.1524 4.78643 25.0359 4.44319 24.892C1.83728 23.8001 0 21.1623 0 18.0824C0 15.1005 1.7216 12.5336 4.19509 11.382C4.59292 11.1969 5.01021 11.0486 5.44318 10.9404C5.78426 10.8913 6.12155 10.8339 6.45452 10.7669C7.41235 10.5768 8.33396 10.3169 9.21017 9.99625C13.9544 8.25969 17.3939 4.7453 18.229 0.843331C18.2938 0.538289 18.5787 0.318012 18.909 0.31132L34.2785 0.000144152C34.712 -0.00822079 35.051 0.348684 34.9937 0.754105Z" fill="#2467E3"/>
</svg>
