<svg width="27" height="26" viewBox="0 0 27 26" fill="none" xmlns="http://www.w3.org/2000/svg">
<path d="M13.5003 24.6459C7.07616 24.6459 1.85449 19.4242 1.85449 13.0001C1.85449 6.57591 7.07616 1.35425 13.5003 1.35425C19.9245 1.35425 25.1462 6.57591 25.1462 13.0001C25.1462 19.4242 19.9245 24.6459 13.5003 24.6459ZM13.5003 2.97925C7.97533 2.97925 3.47949 7.47508 3.47949 13.0001C3.47949 18.5251 7.97533 23.0209 13.5003 23.0209C19.0253 23.0209 23.5212 18.5251 23.5212 13.0001C23.5212 7.47508 19.0253 2.97925 13.5003 2.97925Z" fill="white"/>
<path d="M10.4338 16.8782C10.228 16.8782 10.0221 16.8024 9.85965 16.6399C9.54548 16.3257 9.54548 15.8057 9.85965 15.4916L15.9913 9.35989C16.3055 9.04573 16.8255 9.04573 17.1396 9.35989C17.4538 9.67406 17.4538 10.1941 17.1396 10.5082L11.008 16.6399C10.8563 16.8024 10.6396 16.8782 10.4338 16.8782Z" fill="white"/>
<path d="M16.5655 16.8782C16.3596 16.8782 16.1538 16.8024 15.9913 16.6399L9.85965 10.5082C9.54548 10.1941 9.54548 9.67406 9.85965 9.35989C10.1738 9.04573 10.6938 9.04573 11.008 9.35989L17.1396 15.4916C17.4538 15.8057 17.4538 16.3257 17.1396 16.6399C16.9771 16.8024 16.7713 16.8782 16.5655 16.8782Z" fill="white"/>
</svg>
