<svg width="14" height="14" viewBox="0 0 14 14" fill="none" xmlns="http://www.w3.org/2000/svg">
<path d="M9.33366 7.52508V9.97508C9.33366 12.0167 8.51699 12.8334 6.47533 12.8334H4.02533C1.98366 12.8334 1.16699 12.0167 1.16699 9.97508V7.52508C1.16699 5.48341 1.98366 4.66675 4.02533 4.66675H6.47533C8.51699 4.66675 9.33366 5.48341 9.33366 7.52508Z" fill="#292D32"/>
<path d="M9.97535 1.16675H7.52535C5.89772 1.16675 5.05228 1.68948 4.7761 2.93243C4.6553 3.47608 5.12784 3.93758 5.68476 3.93758H6.47535C8.92535 3.93758 10.0629 5.07508 10.0629 7.52508V8.31568C10.0629 8.87259 10.5244 9.34513 11.068 9.22433C12.311 8.94815 12.8337 8.10271 12.8337 6.47508V4.02508C12.8337 1.98341 12.017 1.16675 9.97535 1.16675Z" fill="#292D32"/>
</svg>
