<svg width="347" height="379" viewBox="0 0 347 379" fill="none" xmlns="http://www.w3.org/2000/svg">
<path d="M0.0628052 -12.6453C1.70267 0.267374 3.51938 12.7847 6.70264 25.0733C22.6136 86.5353 65.2927 141.152 122.924 180.378C79.7888 234.778 49.8588 307.719 41.6059 386.542L41.6005 386.66C41.011 392.269 45.1321 397.218 50.4911 397.336L168.095 399.998C171.626 400.073 174.665 397.385 175.19 393.709C180.603 356.194 196.219 323.455 217.499 299.57C235.238 279.651 256.92 265.886 279.916 260.628C284.026 259.683 288.179 259.015 292.365 258.639C296.009 257.662 299.546 256.371 302.949 254.777C328.785 242.68 347 213.456 347 179.334C347 146.298 329.932 117.859 305.409 105.101C301.464 103.05 297.327 101.406 293.035 100.208C289.653 99.6642 286.309 99.0278 283.008 98.2864C273.512 96.1796 264.375 93.3005 255.688 89.748C208.652 70.5087 174.552 31.5729 166.273 -11.6568C165.63 -15.0363 162.805 -17.4768 159.531 -17.5509L7.1528 -20.9984C2.85489 -21.0911 -0.505249 -17.137 0.0628052 -12.6453Z" fill="#1B5ED0"/>
</svg>
