<svg width="347" height="379" viewBox="0 0 347 379" fill="none" xmlns="http://www.w3.org/2000/svg">
<path d="M346.937 -12.6453C345.297 0.267374 343.481 12.7847 340.297 25.0733C324.386 86.5353 281.707 141.152 224.076 180.378C267.211 234.778 297.141 307.719 305.394 386.542L305.399 386.66C305.989 392.269 301.868 397.218 296.509 397.336L178.905 399.998C175.374 400.073 172.335 397.385 171.81 393.709C166.397 356.194 150.781 323.455 129.501 299.57C111.762 279.651 90.0797 265.886 67.0841 260.628C62.9738 259.683 58.8205 259.015 54.6351 258.639C50.991 257.662 47.4541 256.371 44.0511 254.777C18.2153 242.68 0 213.456 0 179.334C0 146.298 17.0685 117.859 41.5913 105.101C45.5355 103.05 49.6727 101.406 53.9653 100.208C57.3468 99.6642 60.6908 99.0278 63.992 98.2864C73.4882 96.1796 82.6253 93.3005 91.3122 89.748C138.348 70.5087 172.448 31.5729 180.727 -11.6568C181.37 -15.0363 184.195 -17.4768 187.469 -17.5509L339.847 -20.9984C344.145 -21.0911 347.505 -17.137 346.937 -12.6453Z" fill="#1B5ED0"/>
</svg>
