<svg width="16" height="16" viewBox="0 0 16 16" fill="none" xmlns="http://www.w3.org/2000/svg">
<path d="M7.99967 15.1666C4.04634 15.1666 0.833008 11.9533 0.833008 7.99992C0.833008 4.04659 4.04634 0.833252 7.99967 0.833252C11.953 0.833252 15.1663 4.04659 15.1663 7.99992C15.1663 11.9533 11.953 15.1666 7.99967 15.1666ZM7.99967 1.83325C4.59967 1.83325 1.83301 4.59992 1.83301 7.99992C1.83301 11.3999 4.59967 14.1666 7.99967 14.1666C11.3997 14.1666 14.1663 11.3999 14.1663 7.99992C14.1663 4.59992 11.3997 1.83325 7.99967 1.83325Z" fill="#292D32"/>
<path d="M8 9.16659C7.72667 9.16659 7.5 8.93992 7.5 8.66659V5.33325C7.5 5.05992 7.72667 4.83325 8 4.83325C8.27333 4.83325 8.5 5.05992 8.5 5.33325V8.66659C8.5 8.93992 8.27333 9.16659 8 9.16659Z" fill="#292D32"/>
<path d="M7.99967 11.3332C7.91301 11.3332 7.82634 11.3132 7.74634 11.2798C7.66634 11.2465 7.59301 11.1998 7.52634 11.1398C7.46634 11.0732 7.41967 11.0065 7.38634 10.9198C7.35301 10.8398 7.33301 10.7532 7.33301 10.6665C7.33301 10.5798 7.35301 10.4932 7.38634 10.4132C7.41967 10.3332 7.46634 10.2598 7.52634 10.1932C7.59301 10.1332 7.66634 10.0865 7.74634 10.0532C7.90634 9.98651 8.09301 9.98651 8.25301 10.0532C8.33301 10.0865 8.40634 10.1332 8.47301 10.1932C8.53301 10.2598 8.57967 10.3332 8.61301 10.4132C8.64634 10.4932 8.66634 10.5798 8.66634 10.6665C8.66634 10.7532 8.64634 10.8398 8.61301 10.9198C8.57967 11.0065 8.53301 11.0732 8.47301 11.1398C8.40634 11.1998 8.33301 11.2465 8.25301 11.2798C8.17301 11.3132 8.08634 11.3332 7.99967 11.3332Z" fill="#292D32"/>
</svg>
