<svg width="35" height="35" viewBox="0 0 35 35" fill="none" xmlns="http://www.w3.org/2000/svg">
<path d="M0.940552 8.5C0.940552 4.35786 4.29842 1 8.44055 1H26.4406C30.5827 1 33.9406 4.35786 33.9406 8.5V26.5C33.9406 30.6421 30.5827 34 26.4406 34H8.44055C4.29842 34 0.940552 30.6421 0.940552 26.5V8.5Z" stroke="white"/>
<g opacity="0.6">
<path d="M18.4692 7.5C19.5942 7.503 20.1652 7.509 20.6582 7.523L20.8522 7.53C21.0762 7.538 21.2972 7.548 21.5642 7.56C22.6282 7.61 23.3542 7.778 23.9912 8.025C24.6512 8.279 25.2072 8.623 25.7632 9.178C26.2719 9.67773 26.6654 10.2825 26.9162 10.95C27.1632 11.587 27.3312 12.313 27.3812 13.378C27.3932 13.644 27.4032 13.865 27.4112 14.09L27.4172 14.284C27.4322 14.776 27.4382 15.347 27.4402 16.472L27.4412 17.218V18.528C27.4436 19.2574 27.4359 19.9868 27.4182 20.716L27.4122 20.91C27.4042 21.135 27.3942 21.356 27.3822 21.622C27.3322 22.687 27.1622 23.412 26.9162 24.05C26.6654 24.7175 26.2719 25.3223 25.7632 25.822C25.2634 26.3307 24.6587 26.7242 23.9912 26.975C23.3542 27.222 22.6282 27.39 21.5642 27.44L20.8522 27.47L20.6582 27.476C20.1652 27.49 19.5942 27.497 18.4692 27.499L17.7232 27.5H16.4142C15.6844 27.5026 14.9546 27.4949 14.2251 27.477L14.0311 27.471C13.7937 27.462 13.5564 27.4517 13.3191 27.44C12.2551 27.39 11.5291 27.222 10.8911 26.975C10.224 26.7241 9.61956 26.3306 9.12012 25.822C8.61106 25.3224 8.21723 24.7176 7.96612 24.05C7.71912 23.413 7.55112 22.687 7.50112 21.622L7.47112 20.91L7.46612 20.716C7.44768 19.9868 7.43935 19.2574 7.44112 18.528V16.472C7.43835 15.7426 7.44569 15.0132 7.46312 14.284L7.47012 14.09C7.47812 13.865 7.48812 13.644 7.50012 13.378C7.55012 12.313 7.71812 11.588 7.96512 10.95C8.21681 10.2822 8.61134 9.67744 9.12112 9.178C9.62027 8.66955 10.2243 8.27607 10.8911 8.025C11.5291 7.778 12.2541 7.61 13.3191 7.56C13.5851 7.548 13.8071 7.538 14.0311 7.53L14.2251 7.524C14.9543 7.50623 15.6838 7.49857 16.4132 7.501L18.4692 7.5ZM17.4412 12.5C16.1151 12.5 14.8433 13.0268 13.9056 13.9645C12.9679 14.9022 12.4411 16.1739 12.4411 17.5C12.4411 18.8261 12.9679 20.0979 13.9056 21.0355C14.8433 21.9732 16.1151 22.5 17.4412 22.5C18.7673 22.5 20.039 21.9732 20.9767 21.0355C21.9144 20.0979 22.4412 18.8261 22.4412 17.5C22.4412 16.1739 21.9144 14.9022 20.9767 13.9645C20.039 13.0268 18.7673 12.5 17.4412 12.5ZM17.4412 14.5C17.8351 14.4999 18.2253 14.5775 18.5893 14.7282C18.9533 14.8789 19.284 15.0998 19.5626 15.3783C19.8413 15.6569 20.0623 15.9875 20.2131 16.3515C20.3639 16.7154 20.4416 17.1055 20.4417 17.4995C20.4417 17.8935 20.3642 18.2836 20.2135 18.6476C20.0628 19.0116 19.8419 19.3423 19.5633 19.621C19.2848 19.8996 18.9541 20.1206 18.5902 20.2714C18.2262 20.4223 17.8361 20.4999 17.4422 20.5C16.6465 20.5 15.8835 20.1839 15.3208 19.6213C14.7582 19.0587 14.4421 18.2956 14.4421 17.5C14.4421 16.7044 14.7582 15.9413 15.3208 15.3787C15.8835 14.8161 16.6465 14.5 17.4422 14.5M22.6922 11C22.3606 11 22.0427 11.1317 21.8083 11.3661C21.5739 11.6005 21.4422 11.9185 21.4422 12.25C21.4422 12.5815 21.5739 12.8995 21.8083 13.1339C22.0427 13.3683 22.3606 13.5 22.6922 13.5C23.0237 13.5 23.3416 13.3683 23.5761 13.1339C23.8105 12.8995 23.9422 12.5815 23.9422 12.25C23.9422 11.9185 23.8105 11.6005 23.5761 11.3661C23.3416 11.1317 23.0237 11 22.6922 11Z" fill="white"/>
</g>
</svg>
