<svg width="188" height="40" viewBox="0 0 188 40" fill="none" xmlns="http://www.w3.org/2000/svg">
<path fill-rule="evenodd" clip-rule="evenodd" d="M28.9435 25.718C26.4191 27.5052 23.0177 28.4894 19.365 28.4894C18.1783 28.4894 16.9978 28.3828 15.8619 28.171L14.4856 27.9166L13.4422 28.8262C13.151 29.0821 12.7287 29.3396 12.2309 29.5895L12.9768 27.5829L10.927 26.4357C7.98028 24.7871 6.29267 22.4317 6.29267 19.9741C6.29267 17.8655 7.53333 15.8254 9.78655 14.2287C12.311 12.4431 15.7124 11.4573 19.365 11.4573C23.0177 11.4573 26.4191 12.4431 28.9435 14.2287C31.1967 15.8254 32.4389 17.8655 32.4389 19.9741C32.4389 22.0813 31.1967 24.1213 28.9435 25.718ZM19.365 8.71184C10.5833 8.71184 3.46613 13.7534 3.46613 19.9741C3.46613 23.5591 5.83032 26.7526 9.5153 28.814C8.81406 30.7002 7.71211 31.6448 6.85213 32.466C6.02297 33.2613 6.32504 34.308 8.09278 33.9164C9.31957 33.6437 13.453 32.5086 15.3317 30.8693C16.6202 31.1085 17.9718 31.2349 19.365 31.2349C28.1452 31.2349 35.2655 26.1934 35.2655 19.9741C35.2655 13.7534 28.1452 8.71184 19.365 8.71184ZM37.7838 34.3583C41.4688 32.2953 43.833 29.1034 43.833 25.5185C43.833 21.9106 41.4364 18.6974 37.7098 16.6375C38.0504 17.7147 38.2261 18.8315 38.2261 19.9741C38.2261 23.9248 36.1409 27.5799 32.3526 30.2614C28.848 32.7448 24.2337 34.113 19.365 34.113C18.7578 34.113 18.1521 34.0886 17.548 34.0459C20.3344 35.7493 23.9655 36.7792 27.934 36.7792C29.3273 36.7792 30.6789 36.6528 31.9673 36.4136C33.846 38.053 37.9795 39.188 39.2063 39.4607C40.974 39.8508 41.2761 38.8056 40.4454 38.0103C39.587 37.1876 38.4835 36.2429 37.7838 34.3583ZM7.24975 10.8494C9.34731 9.36241 11.8795 8.30961 14.6351 7.74589L15.6015 2.25795C15.677 2.28232 15.754 2.29299 15.8373 2.29299C16.2595 2.29299 16.6001 1.96237 16.6001 1.55253C16.6001 1.14421 16.2595 0.812069 15.8373 0.812069C15.4165 0.812069 15.0744 1.14421 15.0744 1.55253C15.0744 1.72469 15.136 1.88315 15.2362 2.00808L12.3835 3.99483L10.4308 1.38189C10.6589 1.25391 10.8114 1.01623 10.8114 0.74046C10.8114 0.330617 10.4708 0 10.0486 0C9.62935 0 9.2872 0.330617 9.2872 0.74046C9.2872 1.05432 9.48756 1.32247 9.77114 1.42912L8.2993 5.30206L4.59428 4.00702C4.61278 3.94303 4.62357 3.87599 4.62357 3.80743C4.62357 3.39606 4.28142 3.06544 3.86068 3.06544C3.43839 3.06544 3.09779 3.39606 3.09779 3.80743C3.09779 4.21575 3.43839 4.54637 3.86068 4.54637C3.92849 4.54637 3.99476 4.53722 4.05641 4.52046L4.97958 7.52497L1.49187 8.72707C1.39786 8.42236 1.10657 8.19991 0.762888 8.19991C0.340603 8.19991 0 8.53205 0 8.9419C0 9.35022 0.340603 9.68236 0.762888 9.68236C1.06188 9.68236 1.3208 9.51324 1.44564 9.26947L6.28959 11.5853C6.59475 11.3309 6.91531 11.0856 7.24975 10.8494ZM24.2938 19.7944C24.2938 20.4556 23.742 20.9919 23.0608 20.9919C22.3796 20.9919 21.8279 20.4556 21.8279 19.7944C21.8279 19.1316 22.3796 18.5953 23.0608 18.5953C23.742 18.5953 24.2938 19.1316 24.2938 19.7944ZM20.4007 19.7944C20.4007 20.4556 19.849 20.9919 19.1662 20.9919C18.485 20.9919 17.9317 20.4556 17.9317 19.7944C17.9317 19.1316 18.485 18.5953 19.1662 18.5953C19.849 18.5953 20.4007 19.1316 20.4007 19.7944ZM16.5061 19.7944C16.5061 20.4556 15.9528 20.9919 15.2716 20.9919C14.5904 20.9919 14.0371 20.4556 14.0371 19.7944C14.0371 19.1316 14.5904 18.5953 15.2716 18.5953C15.9528 18.5953 16.5061 19.1316 16.5061 19.7944ZM186.475 27.039C185.944 27.7124 185.3 28.0461 184.536 28.0461C184.135 28.0461 183.79 27.8922 183.499 27.5844C183.209 27.2736 183.062 26.8455 183.062 26.2985V19.9132H186.61V17.0504H183.062V12.7859H178.943V17.0504H177.224V19.9132H178.943V26.4844C178.943 28.0369 179.43 29.2649 180.402 30.1669C181.375 31.0673 182.568 31.5183 183.976 31.5183C185.387 31.5183 186.727 30.9531 188 29.8211L186.475 27.039ZM171.986 25.875C171.986 26.5987 171.707 27.1761 171.152 27.6088C170.599 28.0415 169.958 28.2579 169.229 28.2579C168.501 28.2579 167.94 28.1223 167.552 27.848C167.16 27.5753 166.965 27.1822 166.965 26.6688C166.965 25.6815 167.783 25.1848 169.42 25.1848H171.986V25.875ZM174.413 18.1108C173.285 17.2454 171.83 16.8127 170.049 16.8127C167.573 16.8127 165.373 17.4922 163.445 18.8528L165.274 21.4246C165.82 21.0178 166.487 20.6765 167.279 20.4023C168.07 20.1296 168.82 19.9924 169.531 19.9924C171.184 19.9924 172.012 20.7512 172.012 22.2702V22.3509H168.956C167.065 22.3509 165.571 22.712 164.482 23.4372C163.389 24.1609 162.845 25.2518 162.845 26.7084C162.845 28.1649 163.372 29.332 164.428 30.205C165.482 31.0811 166.787 31.5183 168.341 31.5183C169.898 31.5183 171.203 30.8738 172.257 29.5834V31.305H176.104V22.2184C176.104 20.3459 175.541 18.9777 174.413 18.1108ZM155.954 16.8127C154.418 16.8127 153.032 17.4221 151.795 18.641V11.6463H147.701V31.305H151.795V23.6216C151.795 22.5109 152.098 21.6668 152.709 21.0925C153.317 20.5165 154.031 20.2301 154.849 20.2301C156.506 20.2301 157.334 21.3256 157.334 23.5165V31.305H161.427V22.6419C161.427 20.8761 160.899 19.4622 159.844 18.4033C158.789 17.3414 157.493 16.8127 155.954 16.8127ZM138.698 16.3099C140.7 16.3099 142.373 17.122 143.719 18.7461L146.365 15.8315C144.254 13.5187 141.635 12.3623 138.508 12.3623C135.705 12.3623 133.336 13.2795 131.4 15.117C129.463 16.9544 128.494 19.2444 128.494 21.9929C128.494 24.7384 129.444 27.0146 131.343 28.814C133.247 30.6164 135.665 31.5183 138.602 31.5183C141.54 31.5183 144.092 30.3345 146.256 27.9684L143.528 25.2396C142.199 26.8455 140.489 27.6499 138.399 27.6499C136.87 27.6499 135.571 27.1289 134.495 26.0852C133.424 25.0446 132.886 23.6612 132.886 21.9411C132.886 20.2164 133.455 18.8482 134.592 17.8335C135.729 16.8173 137.098 16.3099 138.698 16.3099ZM126.066 23.8608C125.519 23.5424 125.052 23.3093 124.661 23.1584C124.271 23.0091 123.611 22.7928 122.682 22.5109C121.755 22.2275 121.091 21.9792 120.69 21.7674C120.291 21.5556 120.091 21.2646 120.091 20.8929C120.091 20.2225 120.721 19.8858 121.987 19.8858C123.25 19.8858 124.52 20.3109 125.793 21.1595L127.321 18.5085C125.591 17.378 123.864 16.8127 122.136 16.8127C120.408 16.8127 119 17.2271 117.907 18.0575C116.817 18.8878 116.27 19.9604 116.27 21.2783C116.27 22.5932 116.825 23.5881 117.935 24.2585C118.48 24.5936 118.966 24.8511 119.394 25.0263C119.821 25.2031 120.441 25.4149 121.251 25.6632C122.059 25.91 122.677 26.1751 123.106 26.457C123.532 26.7404 123.747 27.0481 123.747 27.3848C123.747 27.72 123.593 27.9897 123.283 28.1923C122.973 28.3965 122.554 28.4971 122.027 28.4971C120.299 28.4971 118.672 27.9227 117.144 26.7739L115.343 29.2649C116.289 30.0069 117.352 30.5691 118.536 30.9485C119.716 31.3279 120.854 31.5183 121.947 31.5183C123.583 31.5183 124.933 31.0932 125.998 30.2461C127.062 29.3975 127.593 28.2716 127.593 26.8684C127.593 25.4636 127.085 24.4611 126.066 23.8608ZM109.15 26.6154C108.494 27.3056 107.675 27.6499 106.693 27.6499C105.712 27.6499 104.879 27.301 104.197 26.6032C103.515 25.9054 103.175 24.9913 103.175 23.8608C103.175 22.7303 103.525 21.839 104.226 21.1839C104.924 20.5303 105.758 20.2027 106.721 20.2027C107.684 20.2027 108.494 20.5303 109.15 21.1839C109.804 21.839 110.132 22.7349 110.132 23.8745C110.132 25.0126 109.804 25.9283 109.15 26.6154ZM110.078 18.9061C108.93 17.5105 107.486 16.8127 105.739 16.8127C103.993 16.8127 102.441 17.4877 101.087 18.8406C99.7319 20.1905 99.0537 21.9228 99.0537 24.033C99.0537 26.1431 99.7134 27.8313 101.031 29.0943C102.35 30.3558 103.97 30.9881 105.89 30.9881C107.808 30.9881 109.412 30.2903 110.705 28.8947C110.705 30.4671 110.269 31.6143 109.394 32.3395C108.521 33.0617 107.335 33.4258 105.835 33.4258C104.334 33.4258 102.91 32.9292 101.564 31.9419L99.9815 34.9357C100.835 35.571 101.833 36.0616 102.97 36.406C104.106 36.7503 105.22 36.9225 106.311 36.9225C108.367 36.9225 110.149 36.3389 111.661 35.1734C112.424 34.6081 113.034 33.8311 113.487 32.8423C113.942 31.852 114.17 30.723 114.17 29.4508V17.0245H110.078V18.9061ZM92.177 16.8127C90.6312 16.8127 89.241 17.4221 88.0034 18.641V17.0504H83.91V31.305H88.0034V23.3565C88.0034 22.2458 88.3086 21.4017 88.9174 20.8274C89.5277 20.253 90.2397 19.965 91.0596 19.965C92.7148 19.965 93.5425 21.0605 93.5425 23.2514V31.305H97.6359V22.6419C97.6359 20.8761 97.1119 19.4622 96.0669 18.4033C95.0205 17.3414 93.7243 16.8127 92.177 16.8127ZM77.4447 31.305H81.5366V17.0504H77.4447V31.305ZM79.4914 11.2486C78.8179 11.2486 78.2492 11.4741 77.7853 11.9251C77.3214 12.376 77.0887 12.9276 77.0887 13.5812C77.0887 14.2333 77.3214 14.7864 77.7853 15.2373C78.2492 15.6868 78.8179 15.9123 79.4914 15.9123C80.1634 15.9123 80.7336 15.6868 81.196 15.2373C81.6599 14.7864 81.8911 14.2333 81.8911 13.5812C81.8911 12.9276 81.6599 12.376 81.196 11.9251C80.7336 11.4741 80.1634 11.2486 79.4914 11.2486ZM71.4418 12.7859L64.2383 20.3886V12.7859H59.9831V31.305H64.2383V26.0609L66.1494 23.9934L71.7439 31.305H76.7081C75.8357 30.1227 74.5149 28.3249 72.7518 25.9146C70.9872 23.5028 69.7773 21.8573 69.1223 20.9736L76.7081 12.7859H71.4418Z" fill="#2B90E3"/>
</svg>
