<svg width="356" height="49" viewBox="0 0 356 49" fill="none" xmlns="http://www.w3.org/2000/svg">
<rect x="1.25" y="1.25" width="353.5" height="46.5" rx="5.75" fill="white"/>
<rect x="1.25" y="1.25" width="353.5" height="46.5" rx="5.75" stroke="#2B90E3" stroke-width="1.5"/>
<mask id="mask0_169_784" style="mask-type:luminance" maskUnits="userSpaceOnUse" x="102" y="8" width="152" height="33">
<path fill-rule="evenodd" clip-rule="evenodd" d="M102.882 8.5H253.118V40.4995H102.882V8.5Z" fill="white"/>
</mask>
<g mask="url(#mask0_169_784)">
<path fill-rule="evenodd" clip-rule="evenodd" d="M126.011 29.3109C123.994 30.7571 121.276 31.5535 118.357 31.5535C117.408 31.5535 116.465 31.4672 115.557 31.2959L114.458 31.09L113.624 31.826C113.391 32.0331 113.053 32.2415 112.656 32.4437L113.252 30.82L111.614 29.8916C109.259 28.5576 107.91 26.6516 107.91 24.663C107.91 22.9567 108.902 21.3059 110.702 20.0138C112.72 18.5689 115.438 17.7712 118.357 17.7712C121.276 17.7712 123.994 18.5689 126.011 20.0138C127.812 21.3059 128.805 22.9567 128.805 24.663C128.805 26.3681 127.812 28.0189 126.011 29.3109ZM118.357 15.5496C111.339 15.5496 105.651 19.6292 105.651 24.663C105.651 27.5639 107.541 30.148 110.486 31.8161C109.925 33.3424 109.045 34.1068 108.357 34.7713C107.695 35.4149 107.936 36.2619 109.349 35.945C110.329 35.7243 113.632 34.8058 115.134 33.4793C116.163 33.6728 117.243 33.7752 118.357 33.7752C125.373 33.7752 131.063 29.6956 131.063 24.663C131.063 19.6292 125.373 15.5496 118.357 15.5496ZM133.076 36.3026C136.021 34.6332 137.91 32.0504 137.91 29.1494C137.91 26.23 135.995 23.6298 133.017 21.963C133.289 22.8346 133.429 23.7383 133.429 24.663C133.429 27.8598 131.763 30.8175 128.736 32.9874C125.935 34.9969 122.247 36.1041 118.357 36.1041C117.872 36.1041 117.388 36.0843 116.905 36.0498C119.131 37.4282 122.033 38.2616 125.205 38.2616C126.318 38.2616 127.398 38.1593 128.428 37.9657C129.929 39.2923 133.232 40.2108 134.213 40.4315C135.625 40.7471 135.867 39.9013 135.203 39.2578C134.517 38.592 133.635 37.8276 133.076 36.3026ZM108.675 17.2793C110.351 16.076 112.375 15.2241 114.577 14.7679L115.349 10.3271C115.41 10.3468 115.471 10.3555 115.538 10.3555C115.875 10.3555 116.147 10.0879 116.147 9.7563C116.147 9.42589 115.875 9.15712 115.538 9.15712C115.201 9.15712 114.928 9.42589 114.928 9.7563C114.928 9.89561 114.977 10.0238 115.057 10.1249L112.778 11.7326L111.217 9.61822C111.399 9.51466 111.521 9.32233 111.521 9.09918C111.521 8.76753 111.249 8.5 110.912 8.5C110.577 8.5 110.303 8.76753 110.303 9.09918C110.303 9.35315 110.463 9.57014 110.69 9.65644L109.514 12.7904L106.553 11.7425C106.568 11.6907 106.576 11.6364 106.576 11.581C106.576 11.2481 106.303 10.9805 105.967 10.9805C105.629 10.9805 105.357 11.2481 105.357 11.581C105.357 11.9114 105.629 12.1789 105.967 12.1789C106.021 12.1789 106.074 12.1715 106.123 12.1579L106.861 14.5892L104.074 15.5619C103.999 15.3153 103.766 15.1353 103.491 15.1353C103.154 15.1353 102.882 15.4041 102.882 15.7357C102.882 16.0662 103.154 16.3349 103.491 16.3349C103.73 16.3349 103.937 16.1981 104.037 16.0008L107.908 17.8748C108.152 17.6689 108.408 17.4704 108.675 17.2793ZM122.295 24.5175C122.295 25.0526 121.855 25.4865 121.31 25.4865C120.766 25.4865 120.325 25.0526 120.325 24.5175C120.325 23.9812 120.766 23.5472 121.31 23.5472C121.855 23.5472 122.295 23.9812 122.295 24.5175ZM119.184 24.5175C119.184 25.0526 118.744 25.4865 118.198 25.4865C117.654 25.4865 117.211 25.0526 117.211 24.5175C117.211 23.9812 117.654 23.5472 118.198 23.5472C118.744 23.5472 119.184 23.9812 119.184 24.5175ZM116.072 24.5175C116.072 25.0526 115.63 25.4865 115.086 25.4865C114.541 25.4865 114.099 25.0526 114.099 24.5175C114.099 23.9812 114.541 23.5472 115.086 23.5472C115.63 23.5472 116.072 23.9812 116.072 24.5175ZM251.899 30.3798C251.476 30.9248 250.961 31.1948 250.35 31.1948C250.03 31.1948 249.754 31.0702 249.521 30.8212C249.289 30.5697 249.172 30.2233 249.172 29.7807V24.6137H252.008V22.2971H249.172V18.8463H245.88V22.2971H244.507V24.6137H245.88V29.9311C245.88 31.1874 246.27 32.1811 247.047 32.9109C247.824 33.6395 248.777 34.0045 249.903 34.0045C251.03 34.0045 252.101 33.5471 253.118 32.6311L251.899 30.3798ZM240.321 29.4379C240.321 30.0235 240.098 30.4908 239.655 30.8409C239.212 31.1911 238.7 31.3661 238.117 31.3661C237.536 31.3661 237.088 31.2564 236.777 31.0345C236.465 30.8138 236.308 30.4957 236.308 30.0802C236.308 29.2813 236.962 28.8794 238.27 28.8794H240.321V29.4379ZM242.261 23.1552C241.359 22.4549 240.196 22.1048 238.773 22.1048C236.795 22.1048 235.036 22.6546 233.495 23.7556L234.957 25.8367C235.393 25.5075 235.926 25.2313 236.559 25.0094C237.191 24.7887 237.791 24.6778 238.359 24.6778C239.68 24.6778 240.342 25.2918 240.342 26.5209V26.5863H237.899C236.388 26.5863 235.195 26.8785 234.324 27.4653C233.451 28.0509 233.016 28.9337 233.016 30.1123C233.016 31.2909 233.437 32.2353 234.281 32.9417C235.123 33.6506 236.167 34.0045 237.408 34.0045C238.652 34.0045 239.695 33.483 240.538 32.4387V33.8319H243.612V26.479C243.612 24.9638 243.162 23.8567 242.261 23.1552ZM227.51 22.1048C226.282 22.1048 225.174 22.5979 224.185 23.5842V17.9241H220.914V33.8319H224.185V27.6145C224.185 26.7157 224.428 26.0327 224.916 25.5679C225.402 25.1019 225.973 24.8701 226.627 24.8701C227.951 24.8701 228.612 25.7565 228.612 27.5294V33.8319H231.883V26.8218C231.883 25.3929 231.461 24.2487 230.618 23.3919C229.775 22.5326 228.739 22.1048 227.51 22.1048ZM213.719 21.6979C215.319 21.6979 216.657 22.355 217.732 23.6693L219.847 21.3108C218.159 19.4393 216.067 18.5035 213.568 18.5035C211.327 18.5035 209.434 19.2457 207.888 20.7326C206.339 22.2194 205.565 24.0724 205.565 26.2965C205.565 28.5182 206.325 30.3601 207.842 31.8161C209.363 33.2746 211.295 34.0045 213.643 34.0045C215.99 34.0045 218.03 33.0465 219.759 31.1319L217.579 28.9238C216.517 30.2233 215.15 30.8742 213.48 30.8742C212.259 30.8742 211.22 30.4526 210.361 29.608C209.505 28.766 209.075 27.6465 209.075 26.2546C209.075 24.859 209.529 23.7519 210.438 22.9308C211.347 22.1085 212.441 21.6979 213.719 21.6979ZM203.625 27.8081C203.188 27.5504 202.815 27.3618 202.502 27.2397C202.19 27.1189 201.663 26.9438 200.92 26.7157C200.18 26.4864 199.649 26.2855 199.329 26.1141C199.01 25.9427 198.85 25.7072 198.85 25.4064C198.85 24.8639 199.354 24.5915 200.365 24.5915C201.375 24.5915 202.39 24.9355 203.407 25.6222L204.627 23.477C203.246 22.5622 201.865 22.1048 200.484 22.1048C199.104 22.1048 197.978 22.4401 197.105 23.112C196.234 23.7839 195.797 24.6519 195.797 25.7183C195.797 26.7823 196.24 27.5874 197.127 28.1298C197.563 28.4011 197.951 28.6094 198.293 28.7512C198.634 28.8942 199.13 29.0656 199.777 29.2665C200.423 29.4663 200.917 29.6808 201.259 29.9089C201.6 30.1382 201.771 30.3872 201.771 30.6597C201.771 30.9309 201.648 31.1491 201.401 31.3131C201.153 31.4783 200.818 31.5597 200.397 31.5597C199.016 31.5597 197.716 31.0949 196.495 30.1653L195.055 32.1811C195.812 32.7815 196.661 33.2364 197.607 33.5434C198.551 33.8504 199.46 34.0045 200.333 34.0045C201.641 34.0045 202.72 33.6605 203.571 32.975C204.421 32.2883 204.845 31.3772 204.845 30.2417C204.845 29.105 204.439 28.2938 203.625 27.8081ZM190.107 30.0371C189.582 30.5956 188.928 30.8742 188.144 30.8742C187.359 30.8742 186.694 30.5919 186.148 30.0272C185.604 29.4626 185.332 28.7228 185.332 27.8081C185.332 26.8933 185.611 26.172 186.172 25.6419C186.73 25.113 187.396 24.8479 188.166 24.8479C188.936 24.8479 189.582 25.113 190.107 25.6419C190.629 26.172 190.891 26.897 190.891 27.8191C190.891 28.7401 190.629 29.4811 190.107 30.0371ZM190.848 23.7987C189.931 22.6694 188.777 22.1048 187.381 22.1048C185.986 22.1048 184.746 22.6509 183.663 23.7457C182.58 24.8381 182.038 26.2398 182.038 27.9474C182.038 29.6549 182.566 31.0209 183.619 32.043C184.673 33.0638 185.967 33.5754 187.502 33.5754C189.034 33.5754 190.316 33.0108 191.349 31.8815C191.349 33.1538 191.001 34.0822 190.301 34.669C189.604 35.2534 188.656 35.548 187.458 35.548C186.258 35.548 185.12 35.1461 184.045 34.3472L182.78 36.7698C183.462 37.2839 184.259 37.6809 185.168 37.9595C186.076 38.2382 186.966 38.3775 187.838 38.3775C189.481 38.3775 190.905 37.9053 192.113 36.9621C192.723 36.5048 193.21 35.876 193.573 35.0758C193.936 34.2745 194.118 33.3609 194.118 32.3315V22.2761H190.848V23.7987ZM176.543 22.1048C175.308 22.1048 174.197 22.5979 173.208 23.5842V22.2971H169.937V33.8319H173.208V27.4C173.208 26.5012 173.452 25.8182 173.938 25.3534C174.426 24.8886 174.995 24.6556 175.65 24.6556C176.973 24.6556 177.634 25.542 177.634 27.3149V33.8319H180.905V26.8218C180.905 25.3929 180.487 24.2487 179.652 23.3919C178.815 22.5326 177.78 22.1048 176.543 22.1048ZM164.77 33.8319H168.04V22.2971H164.77V33.8319ZM166.406 17.6023C165.867 17.6023 165.413 17.7848 165.042 18.1497C164.672 18.5146 164.486 18.9609 164.486 19.4898C164.486 20.0175 164.672 20.4651 165.042 20.83C165.413 21.1937 165.867 21.3761 166.406 21.3761C166.943 21.3761 167.398 21.1937 167.768 20.83C168.139 20.4651 168.323 20.0175 168.323 19.4898C168.323 18.9609 168.139 18.5146 167.768 18.1497C167.398 17.7848 166.943 17.6023 166.406 17.6023ZM159.973 18.8463L154.216 24.9983V18.8463H150.816V33.8319H154.216V29.5883L155.744 27.9153L160.214 33.8319H164.181C163.484 32.8752 162.429 31.4204 161.02 29.47C159.61 27.5183 158.643 26.1868 158.119 25.4718L164.181 18.8463H159.973Z" fill="#2B90E3"/>
</g>
</svg>
