<svg width="166" height="29" viewBox="0 0 166 29" fill="none" xmlns="http://www.w3.org/2000/svg">
<path d="M26.9951 0.575501C26.8675 1.46497 26.7262 2.32721 26.4785 3.1737C25.2404 7.40742 21.9196 11.1696 17.4353 13.8716C20.7916 17.6189 23.1205 22.6434 23.7627 28.073L23.7631 28.0811C23.8089 28.4675 23.4883 28.8084 23.0713 28.8165L13.9206 28.9999C13.6458 29.005 13.4094 28.8199 13.3685 28.5667C12.9473 25.9825 11.7323 23.7273 10.0764 22.082C8.6962 20.7099 7.00908 19.7617 5.2198 19.3996C4.89998 19.3344 4.57681 19.2885 4.25115 19.2625C3.9676 19.1953 3.69239 19.1063 3.42761 18.9965C1.41733 18.1632 0 16.1502 0 13.7997C0 11.5241 1.32809 9.56513 3.23621 8.6863C3.54311 8.54501 3.86502 8.4318 4.19903 8.34924C4.46214 8.31178 4.72234 8.26795 4.9792 8.21688C5.7181 8.07176 6.42906 7.87343 7.10499 7.62872C10.7649 6.30345 13.4181 3.62141 14.0624 0.643595C14.1124 0.4108 14.3321 0.242693 14.5869 0.237586L26.4434 0.000110011C26.7779 -0.00627377 27.0393 0.266101 26.9951 0.575501Z" fill="#2467E3"/>
<path d="M44.8988 17.764L44.7449 14.5663L50.4734 8.53H53.5514L48.3872 14.0875L46.8482 15.7291L44.8988 17.764ZM42.4193 20.5V8.53H45.1724V20.5H42.4193ZM50.6102 20.5L46.3523 15.2845L48.1649 13.318L53.8421 20.5H50.6102ZM55.0773 20.5V8.53H57.8475V20.5H55.0773ZM60.6882 20.5V8.53H62.9796L70.0419 17.1484H68.9304V8.53H71.6664V20.5H69.3921L62.3127 11.8816H63.4242V20.5H60.6882ZM80.2783 20.7052C79.3321 20.7052 78.46 20.557 77.662 20.2606C76.8754 19.9528 76.1857 19.5196 75.5929 18.961C75.0115 18.4024 74.5555 17.7469 74.2249 16.9945C73.9057 16.2421 73.7461 15.4156 73.7461 14.515C73.7461 13.6144 73.9057 12.7879 74.2249 12.0355C74.5555 11.2831 75.0172 10.6276 75.61 10.069C76.2028 9.5104 76.8982 9.0829 77.6962 8.7865C78.4942 8.4787 79.372 8.3248 80.3296 8.3248C81.3898 8.3248 82.3417 8.5015 83.1853 8.8549C84.0403 9.2083 84.7585 9.7213 85.3399 10.3939L83.5615 12.0355C83.1283 11.5795 82.6552 11.2432 82.1422 11.0266C81.6292 10.7986 81.0706 10.6846 80.4664 10.6846C79.885 10.6846 79.3549 10.7758 78.8761 10.9582C78.3973 11.1406 77.9812 11.4028 77.6278 11.7448C77.2858 12.0868 77.0179 12.4915 76.8241 12.9589C76.6417 13.4263 76.5505 13.945 76.5505 14.515C76.5505 15.0736 76.6417 15.5866 76.8241 16.054C77.0179 16.5214 77.2858 16.9318 77.6278 17.2852C77.9812 17.6272 78.3916 17.8894 78.859 18.0718C79.3378 18.2542 79.8622 18.3454 80.4322 18.3454C80.9794 18.3454 81.5095 18.2599 82.0225 18.0889C82.5469 17.9065 83.0542 17.6044 83.5444 17.1826L85.1176 19.1833C84.4678 19.6735 83.7097 20.0497 82.8433 20.3119C81.9883 20.5741 81.1333 20.7052 80.2783 20.7052ZM82.5868 18.8242V14.3269H85.1176V19.1833L82.5868 18.8242ZM91.6239 20.7052C90.6663 20.7052 89.7486 20.5798 88.8708 20.329C87.993 20.0668 87.2862 19.7305 86.7504 19.3201L87.6909 17.2339C88.2039 17.5987 88.8081 17.9008 89.5035 18.1402C90.2103 18.3682 90.9228 18.4822 91.641 18.4822C92.1882 18.4822 92.6271 18.4309 92.9577 18.3283C93.2997 18.2143 93.5505 18.0604 93.7101 17.8666C93.8697 17.6728 93.9495 17.4505 93.9495 17.1997C93.9495 16.8805 93.8241 16.6297 93.5733 16.4473C93.3225 16.2535 92.9919 16.0996 92.5815 15.9856C92.1711 15.8602 91.7151 15.7462 91.2135 15.6436C90.7233 15.5296 90.2274 15.3928 89.7258 15.2332C89.2356 15.0736 88.7853 14.8684 88.3749 14.6176C87.9645 14.3668 87.6282 14.0362 87.366 13.6258C87.1152 13.2154 86.9898 12.691 86.9898 12.0526C86.9898 11.3686 87.1722 10.7473 87.537 10.1887C87.9132 9.6187 88.4718 9.1684 89.2128 8.8378C89.9652 8.4958 90.9057 8.3248 92.0343 8.3248C92.7867 8.3248 93.5277 8.416 94.2573 8.5984C94.9869 8.7694 95.631 9.0316 96.1896 9.385L95.3346 11.4883C94.776 11.1691 94.2174 10.9354 93.6588 10.7872C93.1002 10.6276 92.553 10.5478 92.0172 10.5478C91.4814 10.5478 91.0425 10.6105 90.7005 10.7359C90.3585 10.8613 90.1134 11.0266 89.9652 11.2318C89.817 11.4256 89.7429 11.6536 89.7429 11.9158C89.7429 12.2236 89.8683 12.4744 90.1191 12.6682C90.3699 12.8506 90.7005 12.9988 91.1109 13.1128C91.5213 13.2268 91.9716 13.3408 92.4618 13.4548C92.9634 13.5688 93.4593 13.6999 93.9495 13.8481C94.4511 13.9963 94.9071 14.1958 95.3175 14.4466C95.7279 14.6974 96.0585 15.028 96.3093 15.4384C96.5715 15.8488 96.7026 16.3675 96.7026 16.9945C96.7026 17.6671 96.5145 18.2827 96.1383 18.8413C95.7621 19.3999 95.1978 19.8502 94.4454 20.1922C93.7044 20.5342 92.7639 20.7052 91.6239 20.7052ZM107.371 20.7052C106.414 20.7052 105.496 20.5798 104.618 20.329C103.74 20.0668 103.034 19.7305 102.498 19.3201L103.438 17.2339C103.951 17.5987 104.555 17.9008 105.251 18.1402C105.958 18.3682 106.67 18.4822 107.388 18.4822C107.936 18.4822 108.374 18.4309 108.705 18.3283C109.047 18.2143 109.298 18.0604 109.457 17.8666C109.617 17.6728 109.697 17.4505 109.697 17.1997C109.697 16.8805 109.571 16.6297 109.321 16.4473C109.07 16.2535 108.739 16.0996 108.329 15.9856C107.918 15.8602 107.462 15.7462 106.961 15.6436C106.471 15.5296 105.975 15.3928 105.473 15.2332C104.983 15.0736 104.533 14.8684 104.122 14.6176C103.712 14.3668 103.376 14.0362 103.113 13.6258C102.863 13.2154 102.737 12.691 102.737 12.0526C102.737 11.3686 102.92 10.7473 103.284 10.1887C103.661 9.6187 104.219 9.1684 104.96 8.8378C105.713 8.4958 106.653 8.3248 107.782 8.3248C108.534 8.3248 109.275 8.416 110.005 8.5984C110.734 8.7694 111.378 9.0316 111.937 9.385L111.082 11.4883C110.523 11.1691 109.965 10.9354 109.406 10.7872C108.848 10.6276 108.3 10.5478 107.765 10.5478C107.229 10.5478 106.79 10.6105 106.448 10.7359C106.106 10.8613 105.861 11.0266 105.713 11.2318C105.564 11.4256 105.49 11.6536 105.49 11.9158C105.49 12.2236 105.616 12.4744 105.866 12.6682C106.117 12.8506 106.448 12.9988 106.858 13.1128C107.269 13.2268 107.719 13.3408 108.209 13.4548C108.711 13.5688 109.207 13.6999 109.697 13.8481C110.198 13.9963 110.654 14.1958 111.065 14.4466C111.475 14.6974 111.806 15.028 112.057 15.4384C112.319 15.8488 112.45 16.3675 112.45 16.9945C112.45 17.6671 112.262 18.2827 111.886 18.8413C111.509 19.3999 110.945 19.8502 110.193 20.1922C109.452 20.5342 108.511 20.7052 107.371 20.7052ZM117.216 20.5L113.3 8.53H116.173L119.575 19.132H118.139L121.696 8.53H124.261L127.681 19.132H126.296L129.784 8.53H132.435L128.519 20.5H125.543L122.517 11.1976H123.303L120.191 20.5H117.216ZM132.007 20.5L137.342 8.53H140.078L145.431 20.5H142.524L138.146 9.9322H139.24L134.846 20.5H132.007ZM134.675 17.935L135.41 15.8317H141.566L142.318 17.935H134.675ZM146.673 20.5V8.53H151.854C152.925 8.53 153.849 8.7067 154.624 9.0601C155.399 9.4021 155.998 9.898 156.42 10.5478C156.841 11.1976 157.052 11.9728 157.052 12.8734C157.052 13.7626 156.841 14.5321 156.42 15.1819C155.998 15.8317 155.399 16.3333 154.624 16.6867C153.849 17.0287 152.925 17.1997 151.854 17.1997H148.212L149.443 15.9514V20.5H146.673ZM149.443 16.2592L148.212 14.9425H151.7C152.555 14.9425 153.193 14.7601 153.615 14.3953C154.037 14.0305 154.248 13.5232 154.248 12.8734C154.248 12.2122 154.037 11.6992 153.615 11.3344C153.193 10.9696 152.555 10.7872 151.7 10.7872H148.212L149.443 9.4705V16.2592Z" fill="#2467E3"/>
</svg>
