<svg width="135" height="39" viewBox="0 0 135 39" fill="none" xmlns="http://www.w3.org/2000/svg">
<path d="M24.9955 1.2541C24.8773 2.41962 24.7464 3.54945 24.5171 4.65864C23.3708 10.2063 20.2959 15.136 16.1438 18.6766C19.2515 23.5868 21.4079 30.1706 22.0025 37.2853L22.0028 37.2959C22.0453 37.8022 21.7484 38.2489 21.3623 38.2595L12.8894 38.4999C12.635 38.5066 12.4161 38.264 12.3782 37.9322C11.9883 34.546 10.8632 31.591 9.33001 29.4351C8.05203 27.6371 6.48989 26.3947 4.83315 25.9201C4.53701 25.8348 4.23779 25.7746 3.93625 25.7405C3.6737 25.6524 3.41888 25.5359 3.17371 25.392C1.31234 24.3001 0 21.6623 0 18.5824C0 15.6005 1.22972 13.0336 2.99649 11.882C3.28066 11.6969 3.57872 11.5486 3.88799 11.4404C4.13161 11.3913 4.37254 11.3339 4.61037 11.2669C5.29454 11.0768 5.95283 10.8169 6.57869 10.4963C9.96746 8.75969 12.4242 5.2453 13.0207 1.34333C13.067 1.03829 13.2705 0.818012 13.5064 0.81132L24.4847 0.500144C24.7943 0.491779 25.0364 0.848684 24.9955 1.2541Z" fill="white"/>
<path d="M34.4428 22.084L34.3069 19.2603L39.3654 13.93H42.0834L37.5232 18.8375L36.1642 20.2871L34.4428 22.084ZM32.2533 24.5V13.93H34.6844V24.5H32.2533ZM39.4862 24.5L35.7263 19.8945L37.3269 18.158L42.3401 24.5H39.4862ZM43.4308 24.5V13.93H45.877V24.5H43.4308ZM48.3855 24.5V13.93H50.4089L56.6452 21.5404H55.6637V13.93H58.0797V24.5H56.0714L49.82 16.8896H50.8015V24.5H48.3855ZM65.6843 24.6812C64.8488 24.6812 64.0787 24.5503 63.374 24.2886C62.6794 24.0168 62.0704 23.6343 61.5469 23.141C61.0335 22.6477 60.6309 22.0689 60.3389 21.4045C60.0571 20.7401 59.9161 20.0103 59.9161 19.215C59.9161 18.4197 60.0571 17.6899 60.3389 17.0255C60.6309 16.3611 61.0386 15.7823 61.562 15.289C62.0855 14.7957 62.6996 14.4182 63.4042 14.1565C64.1089 13.8847 64.884 13.7488 65.7296 13.7488C66.6658 13.7488 67.5064 13.9048 68.2513 14.2169C69.0063 14.529 69.6405 14.982 70.1539 15.5759L68.5835 17.0255C68.201 16.6228 67.7832 16.3259 67.3302 16.1346C66.8772 15.9333 66.384 15.8326 65.8504 15.8326C65.337 15.8326 64.8689 15.9131 64.4461 16.0742C64.0233 16.2353 63.6559 16.4668 63.3438 16.7688C63.0418 17.0708 62.8053 17.4282 62.6341 17.8409C62.4731 18.2536 62.3925 18.7117 62.3925 19.215C62.3925 19.7083 62.4731 20.1613 62.6341 20.574C62.8053 20.9867 63.0418 21.3491 63.3438 21.6612C63.6559 21.9632 64.0183 22.1947 64.431 22.3558C64.8538 22.5169 65.3169 22.5974 65.8202 22.5974C66.3034 22.5974 66.7715 22.5219 67.2245 22.3709C67.6876 22.2098 68.1356 21.9431 68.5684 21.5706L69.9576 23.3373C69.3838 23.7702 68.7144 24.1024 67.9493 24.3339C67.1943 24.5654 66.4393 24.6812 65.6843 24.6812ZM67.7228 23.0202V19.0489H69.9576V23.3373L67.7228 23.0202ZM75.703 24.6812C74.8574 24.6812 74.047 24.5705 73.2719 24.349C72.4967 24.1175 71.8726 23.8205 71.3995 23.4581L72.23 21.6159C72.683 21.938 73.2165 22.2048 73.8306 22.4162C74.4547 22.6175 75.0839 22.7182 75.7181 22.7182C76.2013 22.7182 76.5888 22.6729 76.8808 22.5823C77.1828 22.4816 77.4042 22.3457 77.5452 22.1746C77.6861 22.0035 77.7566 21.8072 77.7566 21.5857C77.7566 21.3038 77.6458 21.0824 77.4244 20.9213C77.2029 20.7502 76.911 20.6143 76.5486 20.5136C76.1862 20.4029 75.7835 20.3022 75.3406 20.2116C74.9077 20.1109 74.4698 19.9901 74.0269 19.8492C73.594 19.7083 73.1964 19.5271 72.834 19.3056C72.4716 19.0841 72.1746 18.7922 71.9431 18.4298C71.7216 18.0674 71.6109 17.6043 71.6109 17.0406C71.6109 16.4366 71.7719 15.888 72.0941 15.3947C72.4263 14.8914 72.9195 14.4937 73.5739 14.2018C74.2383 13.8998 75.0688 13.7488 76.0654 13.7488C76.7298 13.7488 77.3841 13.8293 78.0284 13.9904C78.6726 14.1414 79.2414 14.3729 79.7347 14.685L78.9797 16.5423C78.4864 16.2604 77.9931 16.0541 77.4999 15.9232C77.0066 15.7823 76.5234 15.7118 76.0503 15.7118C75.5771 15.7118 75.1896 15.7672 74.8876 15.8779C74.5856 15.9886 74.3691 16.1346 74.2383 16.3158C74.1074 16.4869 74.042 16.6883 74.042 16.9198C74.042 17.1916 74.1527 17.4131 74.3742 17.5842C74.5956 17.7453 74.8876 17.8761 75.25 17.9768C75.6124 18.0775 76.01 18.1781 76.4429 18.2788C76.8858 18.3795 77.3237 18.4952 77.7566 18.6261C78.1995 18.757 78.6022 18.9331 78.9646 19.1546C79.327 19.3761 79.6189 19.668 79.8404 20.0304C80.0719 20.3928 80.1877 20.8508 80.1877 21.4045C80.1877 21.9984 80.0216 22.542 79.6894 23.0353C79.3572 23.5286 78.8589 23.9262 78.1945 24.2282C77.5401 24.5302 76.7096 24.6812 75.703 24.6812ZM89.6085 24.6812C88.7629 24.6812 87.9526 24.5705 87.1774 24.349C86.4023 24.1175 85.7782 23.8205 85.305 23.4581L86.1355 21.6159C86.5885 21.938 87.1221 22.2048 87.7361 22.4162C88.3603 22.6175 88.9894 22.7182 89.6236 22.7182C90.1068 22.7182 90.4944 22.6729 90.7863 22.5823C91.0883 22.4816 91.3098 22.3457 91.4507 22.1746C91.5917 22.0035 91.6621 21.8072 91.6621 21.5857C91.6621 21.3038 91.5514 21.0824 91.3299 20.9213C91.1085 20.7502 90.8165 20.6143 90.4541 20.5136C90.0917 20.4029 89.6891 20.3022 89.2461 20.2116C88.8133 20.1109 88.3754 19.9901 87.9324 19.8492C87.4996 19.7083 87.1019 19.5271 86.7395 19.3056C86.3771 19.0841 86.0802 18.7922 85.8486 18.4298C85.6272 18.0674 85.5164 17.6043 85.5164 17.0406C85.5164 16.4366 85.6775 15.888 85.9996 15.3947C86.3318 14.8914 86.8251 14.4937 87.4794 14.2018C88.1438 13.8998 88.9743 13.7488 89.9709 13.7488C90.6353 13.7488 91.2897 13.8293 91.9339 13.9904C92.5782 14.1414 93.147 14.3729 93.6402 14.685L92.8852 16.5423C92.392 16.2604 91.8987 16.0541 91.4054 15.9232C90.9122 15.7823 90.429 15.7118 89.9558 15.7118C89.4827 15.7118 89.0951 15.7672 88.7931 15.8779C88.4911 15.9886 88.2747 16.1346 88.1438 16.3158C88.013 16.4869 87.9475 16.6883 87.9475 16.9198C87.9475 17.1916 88.0583 17.4131 88.2797 17.5842C88.5012 17.7453 88.7931 17.8761 89.1555 17.9768C89.5179 18.0775 89.9156 18.1781 90.3484 18.2788C90.7914 18.3795 91.2293 18.4952 91.6621 18.6261C92.1051 18.757 92.5077 18.9331 92.8701 19.1546C93.2325 19.3761 93.5245 19.668 93.7459 20.0304C93.9775 20.3928 94.0932 20.8508 94.0932 21.4045C94.0932 21.9984 93.9271 22.542 93.5949 23.0353C93.2627 23.5286 92.7644 23.9262 92.1 24.2282C91.4457 24.5302 90.6152 24.6812 89.6085 24.6812ZM98.3015 24.5L94.8436 13.93H97.3804L100.385 23.292H99.1169L102.258 13.93H104.523L107.543 23.292H106.32L109.4 13.93H111.741L108.283 24.5H105.655L102.983 16.2856H103.677L100.929 24.5H98.3015ZM111.363 24.5L116.074 13.93H118.49L123.217 24.5H120.65L116.784 15.1682H117.75L113.87 24.5H111.363ZM113.719 22.235L114.368 20.3777H119.804L120.468 22.235H113.719ZM124.313 24.5V13.93H128.888C129.835 13.93 130.65 14.086 131.335 14.3981C132.019 14.7001 132.548 15.138 132.92 15.7118C133.293 16.2856 133.479 16.9701 133.479 17.7654C133.479 18.5506 133.293 19.2301 132.92 19.8039C132.548 20.3777 132.019 20.8206 131.335 21.1327C130.65 21.4347 129.835 21.5857 128.888 21.5857H125.672L126.759 20.4834V24.5H124.313ZM126.759 20.7552L125.672 19.5925H128.753C129.508 19.5925 130.071 19.4314 130.444 19.1093C130.816 18.7872 131.002 18.3392 131.002 17.7654C131.002 17.1815 130.816 16.7285 130.444 16.4064C130.071 16.0843 129.508 15.9232 128.753 15.9232H125.672L126.759 14.7605V20.7552Z" fill="white"/>
</svg>
