<svg width="37" height="38" viewBox="0 0 37 38" fill="none" xmlns="http://www.w3.org/2000/svg">
<rect x="0.5" y="1" width="36" height="36" rx="18" stroke="#434343"/>
<path d="M18.5 22.2812C16.6888 22.2812 15.2188 20.8112 15.2188 19C15.2188 17.1888 16.6888 15.7188 18.5 15.7188C20.3112 15.7188 21.7812 17.1888 21.7812 19C21.7812 20.8112 20.3112 22.2812 18.5 22.2812ZM18.5 17.0312C17.415 17.0312 16.5312 17.915 16.5312 19C16.5312 20.085 17.415 20.9688 18.5 20.9688C19.585 20.9688 20.4688 20.085 20.4688 19C20.4688 17.915 19.585 17.0312 18.5 17.0312Z" fill="#434343"/>
<path d="M21.3088 27.9162C21.125 27.9162 20.9412 27.89 20.7575 27.8462C20.215 27.6975 19.76 27.3562 19.4712 26.875L19.3663 26.7C18.85 25.8075 18.1412 25.8075 17.625 26.7L17.5288 26.8662C17.24 27.3562 16.785 27.7062 16.2425 27.8462C15.6912 27.995 15.1225 27.9162 14.6413 27.6275L13.1363 26.7612C12.6025 26.455 12.2175 25.9562 12.0512 25.3525C11.8938 24.7487 11.9725 24.1275 12.2787 23.5937C12.5325 23.1475 12.6025 22.745 12.4538 22.4912C12.305 22.2375 11.9288 22.0887 11.4125 22.0887C10.135 22.0887 9.09375 21.0475 9.09375 19.77V18.23C9.09375 16.9525 10.135 15.9112 11.4125 15.9112C11.9288 15.9112 12.305 15.7625 12.4538 15.5087C12.6025 15.255 12.5412 14.8525 12.2787 14.4062C11.9725 13.8725 11.8938 13.2425 12.0512 12.6475C12.2088 12.0437 12.5938 11.545 13.1363 11.2387L14.65 10.3725C15.6388 9.78625 16.9425 10.1275 17.5375 11.1337L17.6425 11.3087C18.1588 12.2012 18.8675 12.2012 19.3837 11.3087L19.48 11.1425C20.075 10.1275 21.3787 9.78625 22.3763 10.3812L23.8812 11.2475C24.415 11.5537 24.8 12.0525 24.9662 12.6562C25.1237 13.26 25.045 13.8812 24.7387 14.415C24.485 14.8612 24.415 15.2637 24.5638 15.5175C24.7125 15.7712 25.0888 15.92 25.605 15.92C26.8825 15.92 27.9237 16.9612 27.9237 18.2387V19.7787C27.9237 21.0562 26.8825 22.0975 25.605 22.0975C25.0888 22.0975 24.7125 22.2462 24.5638 22.5C24.415 22.7537 24.4762 23.1562 24.7387 23.6025C25.045 24.1362 25.1325 24.7662 24.9662 25.3612C24.8087 25.965 24.4237 26.4637 23.8812 26.77L22.3675 27.6362C22.035 27.82 21.6763 27.9162 21.3088 27.9162ZM18.5 24.6787C19.2788 24.6787 20.005 25.1687 20.5037 26.035L20.6 26.2012C20.705 26.385 20.88 26.5162 21.09 26.5687C21.3 26.6212 21.51 26.595 21.685 26.49L23.1988 25.615C23.4263 25.4837 23.6012 25.265 23.6712 25.0025C23.7413 24.74 23.7062 24.4687 23.575 24.2412C23.0762 23.3837 23.015 22.5 23.4 21.8262C23.785 21.1525 24.5813 20.7675 25.5788 20.7675C26.1388 20.7675 26.585 20.3212 26.585 19.7612V18.2212C26.585 17.67 26.1388 17.215 25.5788 17.215C24.5813 17.215 23.785 16.83 23.4 16.1562C23.015 15.4825 23.0762 14.5987 23.575 13.7412C23.7062 13.5137 23.7413 13.2425 23.6712 12.98C23.6012 12.7175 23.435 12.5075 23.2075 12.3675L21.6937 11.5012C21.3175 11.2737 20.8188 11.405 20.5913 11.79L20.495 11.9562C19.9963 12.8225 19.27 13.3125 18.4913 13.3125C17.7125 13.3125 16.9862 12.8225 16.4875 11.9562L16.3913 11.7812C16.1725 11.4137 15.6825 11.2825 15.3063 11.5012L13.7925 12.3762C13.565 12.5075 13.39 12.7262 13.32 12.9887C13.25 13.2512 13.285 13.5225 13.4163 13.75C13.915 14.6075 13.9762 15.4912 13.5912 16.165C13.2062 16.8387 12.41 17.2237 11.4125 17.2237C10.8525 17.2237 10.4062 17.67 10.4062 18.23V19.77C10.4062 20.3212 10.8525 20.7762 11.4125 20.7762C12.41 20.7762 13.2062 21.1612 13.5912 21.835C13.9762 22.5087 13.915 23.3925 13.4163 24.25C13.285 24.4775 13.25 24.7487 13.32 25.0112C13.39 25.2737 13.5563 25.4837 13.7838 25.6237L15.2975 26.49C15.4813 26.6037 15.7 26.63 15.9012 26.5775C16.1112 26.525 16.2863 26.385 16.4 26.2012L16.4963 26.035C16.995 25.1775 17.7212 24.6787 18.5 24.6787Z" fill="#434343"/>
</svg>
