<svg width="930" height="900" viewBox="0 0 930 900" fill="none" xmlns="http://www.w3.org/2000/svg">
<path d="M929.832 -49.9567C925.437 -18.9785 920.568 11.0511 912.036 40.5322C869.393 187.982 755.008 319.01 600.551 413.115C716.157 543.624 796.373 718.614 818.491 907.714L818.506 907.995C820.086 921.454 809.041 933.326 794.678 933.608L479.487 939.996C470.022 940.174 461.878 933.727 460.471 924.907C445.964 834.908 404.111 756.365 347.076 699.063C299.536 651.277 241.424 618.253 179.793 605.64C168.777 603.372 157.646 601.771 146.428 600.867C136.662 598.525 127.182 595.427 118.062 591.603C48.8191 562.581 0 492.473 0 410.61C0 331.357 45.7454 263.13 111.469 232.523C122.041 227.602 133.129 223.659 144.633 220.784C153.696 219.479 162.658 217.953 171.506 216.174C196.957 211.12 221.445 204.213 244.727 195.69C370.789 149.534 462.18 56.1251 484.37 -47.5852C486.094 -55.6928 493.663 -61.5476 502.439 -61.7254L910.83 -69.9962C922.349 -70.2185 931.354 -60.7324 929.832 -49.9567Z" fill="#1B5ED0" fill-opacity="0.06"/>
</svg>
