<svg width="1224" height="379" viewBox="0 0 1224 379" fill="none" xmlns="http://www.w3.org/2000/svg">
<g clip-path="url(#clip0_325_441)">
<rect width="1224" height="379" fill="#2467E3"/>
<path d="M346.937 -12.6453C345.297 0.267374 343.481 12.7847 340.297 25.0733C324.386 86.5353 281.707 141.152 224.076 180.378C267.211 234.778 297.141 307.719 305.394 386.542L305.399 386.66C305.989 392.269 301.868 397.218 296.509 397.336L178.905 399.998C175.374 400.073 172.335 397.385 171.81 393.709C166.397 356.194 150.781 323.455 129.501 299.57C111.762 279.651 90.0797 265.886 67.0841 260.628C62.9738 259.683 58.8205 259.015 54.6351 258.639C50.991 257.662 47.4541 256.371 44.0511 254.777C18.2153 242.68 0 213.456 0 179.334C0 146.298 17.0685 117.859 41.5913 105.101C45.5355 103.05 49.6727 101.406 53.9653 100.208C57.3468 99.6642 60.6908 99.0278 63.992 98.2864C73.4882 96.1796 82.6253 93.3005 91.3122 89.748C138.348 70.5087 172.448 31.5729 180.727 -11.6568C181.37 -15.0363 184.195 -17.4768 187.469 -17.5509L339.847 -20.9984C344.145 -21.0911 347.505 -17.137 346.937 -12.6453Z" fill="#1B5ED0"/>
<path d="M416.906 212.5V166.93H426.671V187.567L444.899 166.93H456.747L439.886 185.939L457.854 212.5H446.136L432.986 193.1L426.671 200.261V212.5H416.906ZM461.344 212.5V166.93H471.109V212.5H461.344ZM488.397 212.5H478.827V166.93H487.681L507.016 195.639V166.93H516.65V212.5H507.732L488.397 183.791V212.5ZM544.265 212.891C531.245 212.891 522.587 203.711 522.587 189.715C522.587 175.719 531.18 166.539 545.177 166.539C556.179 166.539 563.926 173.31 565.098 183.14H555.332C554.161 178.127 550.515 174.807 544.916 174.807C537.3 174.807 532.547 180.926 532.547 189.715C532.547 198.504 537.104 204.623 544.916 204.623C550.124 204.623 555.398 201.889 556.309 195.509V194.923H544.982V187.176H565.358V212.5H558.522L557.546 207.032C555.137 210.222 550.71 212.891 544.265 212.891ZM571.349 197.527L580.918 197.657C581.244 202.084 584.759 205.144 590.358 205.144C594.85 205.144 598.17 203.191 598.17 199.61C598.17 195.769 594.459 194.988 586.842 193.491C579.161 192.059 572.39 189.585 572.39 180.341C572.39 172.268 579.096 166.539 589.381 166.539C600.123 166.539 606.958 172.138 607.089 180.861H597.519C597.063 177.02 594.134 174.351 589.381 174.351C585.215 174.351 582.22 176.109 582.22 179.625C582.22 183.335 585.801 184.116 593.352 185.549C601.164 186.981 608.065 189.324 608 198.504C607.935 207.032 600.904 212.891 590.228 212.891C578.64 212.891 571.414 206.771 571.349 197.527ZM628.184 197.527L637.754 197.657C638.079 202.084 641.595 205.144 647.193 205.144C651.685 205.144 655.005 203.191 655.005 199.61C655.005 195.769 651.294 194.988 643.678 193.491C635.996 192.059 629.226 189.585 629.226 180.341C629.226 172.268 635.931 166.539 646.217 166.539C656.958 166.539 663.794 172.138 663.924 180.861H654.354C653.898 177.02 650.969 174.351 646.217 174.351C642.05 174.351 639.056 176.109 639.056 179.625C639.056 183.335 642.636 184.116 650.188 185.549C658 186.981 664.9 189.324 664.835 198.504C664.77 207.032 657.739 212.891 647.063 212.891C635.475 212.891 628.249 206.771 628.184 197.527ZM677.963 212.5L665.269 166.93L675.424 166.865L683.822 200.196L692.741 166.93H701.529L710.188 200.196L718.781 166.93H728.676L715.981 212.5H704.784L696.842 182.228L689.16 212.5H677.963ZM734.547 212.5H724.456L741.122 166.93H752.84L769.375 212.5H758.894L755.379 202.54H738.062L734.547 212.5ZM746.655 177.346L740.666 194.663H752.71L746.655 177.346ZM773.557 212.5V166.93H792.111C802.006 166.93 808.581 172.854 808.581 182.098C808.581 191.277 802.006 197.201 792.111 197.201H783.322V212.5H773.557ZM791.199 175.067H783.322V189.064H791.199C795.756 189.064 798.686 186.395 798.686 182.098C798.686 177.737 795.756 175.067 791.199 175.067Z" fill="white"/>
<path d="M877.063 -12.6453C878.703 0.267374 880.519 12.7847 883.703 25.0733C899.614 86.5353 942.293 141.152 999.924 180.378C956.789 234.778 926.859 307.719 918.606 386.542L918.601 386.66C918.011 392.269 922.132 397.218 927.491 397.336L1045.09 399.998C1048.63 400.073 1051.66 397.385 1052.19 393.709C1057.6 356.194 1073.22 323.455 1094.5 299.57C1112.24 279.651 1133.92 265.886 1156.92 260.628C1161.03 259.683 1165.18 259.015 1169.36 258.639C1173.01 257.662 1176.55 256.371 1179.95 254.777C1205.78 242.68 1224 213.456 1224 179.334C1224 146.298 1206.93 117.859 1182.41 105.101C1178.46 103.05 1174.33 101.406 1170.03 100.208C1166.65 99.6642 1163.31 99.0278 1160.01 98.2864C1150.51 96.1796 1141.37 93.3005 1132.69 89.748C1085.65 70.5087 1051.55 31.5729 1043.27 -11.6568C1042.63 -15.0363 1039.81 -17.4768 1036.53 -17.5509L884.153 -20.9984C879.855 -21.0911 876.495 -17.137 877.063 -12.6453Z" fill="#1B5ED0"/>
</g>
<defs>
<clipPath id="clip0_325_441">
<rect width="1224" height="379" fill="white"/>
</clipPath>
</defs>
</svg>
