<svg width="27" height="29" viewBox="0 0 27 29" fill="none" xmlns="http://www.w3.org/2000/svg">
<path d="M26.9951 0.575501C26.8675 1.46497 26.7262 2.32721 26.4785 3.1737C25.2404 7.40742 21.9196 11.1696 17.4353 13.8716C20.7916 17.6189 23.1205 22.6434 23.7627 28.073L23.7631 28.0811C23.8089 28.4675 23.4883 28.8084 23.0713 28.8165L13.9206 28.9999C13.6458 29.005 13.4094 28.8199 13.3685 28.5667C12.9473 25.9825 11.7323 23.7273 10.0764 22.082C8.6962 20.7099 7.00908 19.7617 5.2198 19.3996C4.89998 19.3344 4.57681 19.2885 4.25115 19.2625C3.9676 19.1953 3.69239 19.1063 3.42761 18.9965C1.41733 18.1632 0 16.1502 0 13.7997C0 11.5241 1.32809 9.56513 3.23621 8.6863C3.54311 8.54501 3.86502 8.4318 4.19903 8.34924C4.46214 8.31178 4.72234 8.26795 4.9792 8.21688C5.7181 8.07176 6.42906 7.87343 7.10499 7.62872C10.7649 6.30345 13.4181 3.62141 14.0624 0.643595C14.1124 0.4108 14.3321 0.242693 14.5869 0.237586L26.4434 0.000110011C26.7779 -0.00627377 27.0393 0.266101 26.9951 0.575501Z" fill="#CFCFD0"/>
</svg>
