<svg width="35" height="35" viewBox="0 0 35 35" fill="none" xmlns="http://www.w3.org/2000/svg">
<path d="M0.940552 8.5C0.940552 4.35786 4.29842 1 8.44055 1H26.4406C30.5827 1 33.9406 4.35786 33.9406 8.5V26.5C33.9406 30.6421 30.5827 34 26.4406 34H8.44055C4.29842 34 0.940552 30.6421 0.940552 26.5V8.5Z" stroke="white"/>
<g opacity="0.6">
<path fill-rule="evenodd" clip-rule="evenodd" d="M27.0265 26.875L19.5291 15.9471L19.5419 15.9574L26.3019 8.125H24.0429L18.536 14.5L14.1628 8.125H8.23821L15.2378 18.3276L15.2369 18.3267L7.85461 26.875H10.1136L16.2361 19.7824L21.1019 26.875H27.0265ZM13.2677 9.82954L23.7872 25.1705H21.997L11.4691 9.82954H13.2677Z" fill="white"/>
</g>
</svg>
