<svg width="35" height="35" viewBox="0 0 35 35" fill="none" xmlns="http://www.w3.org/2000/svg">
<path d="M0.940552 8.5C0.940552 4.35786 4.29842 1 8.44055 1H26.4406C30.5827 1 33.9406 4.35786 33.9406 8.5V26.5C33.9406 30.6421 30.5827 34 26.4406 34H8.44055C4.29842 34 0.940552 30.6421 0.940552 26.5V8.5Z" stroke="white"/>
<g opacity="0.6">
<path d="M15.4406 20.5L20.6306 17.5L15.4406 14.5V20.5ZM27.0006 12.67C27.1306 13.14 27.2206 13.77 27.2806 14.57C27.3506 15.37 27.3806 16.06 27.3806 16.66L27.4406 17.5C27.4406 19.69 27.2806 21.3 27.0006 22.33C26.7506 23.23 26.1706 23.81 25.2706 24.06C24.8006 24.19 23.9406 24.28 22.6206 24.34C21.3206 24.41 20.1306 24.44 19.0306 24.44L17.4406 24.5C13.2506 24.5 10.6406 24.34 9.61055 24.06C8.71055 23.81 8.13055 23.23 7.88055 22.33C7.75055 21.86 7.66055 21.23 7.60055 20.43C7.53055 19.63 7.50055 18.94 7.50055 18.34L7.44055 17.5C7.44055 15.31 7.60055 13.7 7.88055 12.67C8.13055 11.77 8.71055 11.19 9.61055 10.94C10.0806 10.81 10.9406 10.72 12.2606 10.66C13.5606 10.59 14.7506 10.56 15.8506 10.56L17.4406 10.5C21.6306 10.5 24.2406 10.66 25.2706 10.94C26.1706 11.19 26.7506 11.77 27.0006 12.67Z" fill="white"/>
</g>
</svg>
